<?xml version="1.0" encoding="UTF-8" standalone="no"?>
<!-- Created with Inkscape (http://www.inkscape.org/) -->

<svg
   version="1.1"
   id="svg2"
   width="426.66699"
   height="426.66666"
   viewBox="0 0 426.66699 426.66666"
   sodipodi:docname="Screenshot from 2025-08-05_001.png"
   inkscape:version="0.0"
   inkscape:export-filename="Screenshot from 2025-08-05_0012.png"
   inkscape:export-xdpi="96"
   inkscape:export-ydpi="96"
   xmlns:inkscape="http://www.inkscape.org/namespaces/inkscape"
   xmlns:sodipodi="http://sodipodi.sourceforge.net/DTD/sodipodi-0.dtd"
   xmlns="http://www.w3.org/2000/svg"
   xmlns:svg="http://www.w3.org/2000/svg">
  <defs
     id="defs6" />
  <sodipodi:namedview
     id="namedview4"
     pagecolor="#ffffff"
     bordercolor="#666666"
     borderopacity="1.0"
     inkscape:showpageshadow="2"
     inkscape:pageopacity="0.0"
     inkscape:pagecheckerboard="0"
     inkscape:deskcolor="#d1d1d1"
     showgrid="false"
     inkscape:zoom="1.4516667"
     inkscape:cx="235.59127"
     inkscape:cy="314.46613"
     inkscape:window-width="1920"
     inkscape:window-height="1026"
     inkscape:window-x="0"
     inkscape:window-y="30"
     inkscape:window-maximized="1"
     inkscape:current-layer="g847" />
  <g
     inkscape:groupmode="layer"
     inkscape:label="Image"
     id="g8"
     transform="translate(-71.999665,-85.333333)">
    <g
       id="g847">
      <path
         style="fill:#f8c2c3;stroke-width:1.33333"
         d="m 269.66667,84.337643 c 8.61666,-0.232248 22.71666,-0.232248 31.33333,0 8.61667,0.232248 1.56667,0.42227 -15.66667,0.42227 -17.23333,0 -24.28333,-0.190022 -15.66666,-0.42227 z"
         id="path855" />
      <path
         style="fill:#f8c1c2;stroke-width:1.33333"
         d="m 269.66667,512.33764 c 8.61666,-0.23224 22.71666,-0.23224 31.33333,0 8.61667,0.23225 1.56667,0.42227 -15.66667,0.42227 -17.23333,0 -24.28333,-0.19002 -15.66666,-0.42227 z"
         id="path853" />
      <path
         style="fill:#f8afb0;stroke-width:1.33333"
         d="m 71.240087,298.66667 c 0,-17.23334 0.190022,-24.28334 0.42227,-15.66667 0.232248,8.61667 0.232248,22.71667 0,31.33333 -0.232248,8.61667 -0.42227,1.56667 -0.42227,-15.66666 z m 428.000003,0 c 0,-17.23334 0.19002,-24.28334 0.42227,-15.66667 0.23224,8.61667 0.23224,22.71667 0,31.33333 -0.23225,8.61667 -0.42227,1.56667 -0.42227,-15.66666 z"
         id="path851" />
      <path
         style="fill:#fe0000;stroke-width:1.33333"
         d="m 236.667,347.333 c -54.889,0 -109.778,0 -164.667,0 1.34e-4,-32.44433 -1.12e-4,-64.88867 -3.35e-4,-97.333 54.889055,0 109.778115,0 164.667165,0 4e-4,-54.88889 3.4e-4,-109.77778 3.4e-4,-164.666667 32.44428,0 64.88855,0 97.33283,0 0,54.888887 0,109.777777 0,164.666667 54.88889,0 109.77778,0 164.66667,0 0,32.44433 0,64.88867 0,97.333 -54.88889,0 -109.77778,0 -164.66667,0 0,54.889 0,109.778 0,164.667 -32.44433,0 -64.88867,0 -97.333,0 0,-54.889 0,-109.778 0,-164.667 z"
         id="path849"
         sodipodi:nodetypes="ccccccccccccc" />
    </g>
  </g>
</svg>
