<?xml version="1.0" encoding="UTF-8" standalone="no"?>
<!-- Created with Inkscape (http://www.inkscape.org/) -->

<svg
   version="1.1"
   id="svg264"
   width="509.32959"
   height="733.36072"
   viewBox="0 0 509.32959 733.36071"
   sodipodi:docname="path274.svg"
   inkscape:version="1.2.2 (b0a8486541, 2022-12-01)"
   xmlns:inkscape="http://www.inkscape.org/namespaces/inkscape"
   xmlns:sodipodi="http://sodipodi.sourceforge.net/DTD/sodipodi-0.dtd"
   xmlns="http://www.w3.org/2000/svg"
   xmlns:svg="http://www.w3.org/2000/svg">
  <defs
     id="defs268" />
  <sodipodi:namedview
     id="namedview266"
     pagecolor="#ffffff"
     bordercolor="#666666"
     borderopacity="1.0"
     inkscape:showpageshadow="2"
     inkscape:pageopacity="0.0"
     inkscape:pagecheckerboard="0"
     inkscape:deskcolor="#d1d1d1"
     showgrid="false"
     inkscape:zoom="0.83981865"
     inkscape:cx="128.59919"
     inkscape:cy="310.18602"
     inkscape:window-width="1918"
     inkscape:window-height="1048"
     inkscape:window-x="0"
     inkscape:window-y="30"
     inkscape:window-maximized="1"
     inkscape:current-layer="g270" />
  <g
     inkscape:groupmode="layer"
     inkscape:label="Image"
     id="g270"
     transform="translate(-41.497914,-11.000637)">
    <path
       style="fill:#000000;stroke-width:2.57766"
       d="M 96.849176,742.17078 C 75.041757,735.52668 57.260421,716.83487 47.481543,690.27536 L 41.497914,674.02378 V 419.47832 164.93286 l 5.983629,-16.25158 c 7.619551,-20.69476 19.882322,-36.29198 36.07265,-45.88138 11.684298,-6.920515 15.790671,-7.649675 48.732297,-8.653355 l 35.97283,-1.09604 c -0.24009,-12.044094 0.0462,-24.061173 0.55419,-36.089631 h 48.63205 l 11.15875,-13.29438 c 36.55781,-43.55447383 99.66739,-43.55447876 136.22521,0 l 11.15875,13.29438 h 48.63205 c -0.75764,12.017897 -0.55419,24.05574 -0.55419,36.089631 l 35.97283,1.09604 c 32.94164,1.00368 37.04799,1.73284 48.73229,8.653355 16.19033,9.5894 28.45309,25.18662 36.07264,45.88138 l 5.98364,16.25158 v 254.54546 254.54546 l -5.98364,16.25158 c -7.60579,20.65745 -19.85403,36.25789 -36.07264,45.94531 l -12.75946,7.62129 -195.28109,0.47456 c -109.43151,0.2659 -199.06202,-0.67735 -203.881524,-2.14574 z M 498.55899,707.29857 c 3.46857,-3.29885 18.42561,-25.61303 21.01561,-30.0315 4.6706,-7.96789 4.7091,-10.07564 4.7091,-257.78875 0,-247.7131 -0.0386,-253.82086 -4.7091,-261.78875 -10.87529,-18.55288 -24.29268,-27.94667 -61.4071,-28.9663 l -34.10137,-0.93685 v 45.77284 H 296.16273 168.25932 v -45.77284 l -34.10137,0.93685 c -37.113962,1.01961 -50.530802,10.41311 -61.407101,28.96521 -4.654952,7.94012 -4.716732,14.81513 -5.372223,254.00209 -0.364715,133.08326 -0.06688,246.18557 0.661879,251.33848 1.648929,11.6594 21.245173,42.51848 30.443906,47.65591 5.664919,3.16381 43.069859,3.77068 200.366629,3.25076 191.37824,-0.63252 193.4674,-0.70196 199.70795,-6.63715 z M 159.85693,572.20202 c 0,-3.21433 -6.20205,-6.83316 -7.70006,-11.43948 -3.49588,-10.7497 0.32369,-13.69169 8.37033,-18.36139 3.99693,-2.31954 43.9024,-3.28646 135.63553,-3.28646 91.73312,0 131.63859,0.96692 135.63552,3.28646 8.03807,4.66475 11.86624,7.6116 8.37852,18.33617 -1.4935,4.59244 -5.26384,9.8288 -8.37852,11.63636 -7.64487,4.43657 -271.94132,8.30747 -271.94132,-0.17163 z m 0,-122.36364 c 0,-3.21433 -6.20205,-6.83316 -7.70006,-11.43948 -3.49588,-10.7497 0.32369,-15.69169 8.37033,-20.36139 3.99693,-2.31954 43.9024,-3.28646 135.63553,-3.28646 91.73312,0 131.63859,0.96692 135.63552,3.28646 3.11468,1.80756 6.88502,5.04392 8.37852,9.63636 3.48772,10.72457 -0.34045,17.67142 -8.37852,22.33618 -7.64487,4.43656 -271.94132,8.30746 -271.94132,-0.17164 z m 0,-124.36364 c 0,-3.21433 -6.20205,-6.83316 -7.70006,-11.43948 -3.49588,-10.7497 0.32369,-15.69169 8.37033,-20.36139 3.99693,-2.31954 43.9024,-3.28646 135.63553,-3.28646 91.73312,0 131.63859,0.96692 135.63552,3.28646 8.03807,4.66475 11.86624,9.61161 8.37852,20.33617 -1.4935,4.59244 -5.26384,9.8288 -8.37852,11.63637 -7.64487,4.43656 -271.94132,8.30747 -271.94132,-0.17164 z M 395.52229,83.660125 h -48.5408 l -1.43141,-9.11573 c -3.05347,-19.445561 -26.78294,-37.42973 -49.38735,-37.42973 -22.60442,0 -46.33392,17.984164 -49.38737,37.42973 l -1.4314,9.11573 h -48.54081 v 61.090915 h 99.35958 99.35956 z"
       id="path274"
       sodipodi:nodetypes="sscccssscccsscccssscccsscssssscscccccssssssssssssssssssssssssssssssssssccssscccccc" />
    <path
       style="fill:#000000;stroke:#2aff00;stroke-width:0;stroke-opacity:0.996891"
       id="path382"
       sodipodi:type="arc"
       sodipodi:cx="295.81494"
       sodipodi:cy="86.454742"
       sodipodi:rx="20.441076"
       sodipodi:ry="20.1569"
       sodipodi:start="0"
       sodipodi:end="6.2409702"
       sodipodi:arc-type="arc"
       d="m 316.25602,86.454742 a 20.441076,20.1569 0 0 1 -20.22535,20.155778 20.441076,20.1569 0 0 1 -20.65225,-19.730346 20.441076,20.1569 0 0 1 19.78944,-20.57223 20.441076,20.1569 0 0 1 21.06995,19.296125"
       sodipodi:open="true" />
  </g>
</svg>
